Coordinates
version=1
nRows=16
nColumns=42
inDegrees=yes

Units are S.I. units (second, meters, Newtons, ...)
If the header above contains a line with 'inDegrees', this indicates whether rotational values are in degrees (yes) or radians (no).

endheader
time	pelvis_tilt	pelvis_list	pelvis_rotation	pelvis_tx	pelvis_ty	pelvis_tz	hip_flexion_r	hip_adduction_r	hip_rotation_r	knee_angle_r	knee_adduction_r	knee_angle_r_beta	ankle_angle_r	subtalar_angle_r	mtp_angle_r	hip_flexion_l	hip_adduction_l	hip_rotation_l	knee_angle_l	knee_adduction_l	knee_angle_l_beta	ankle_angle_l	subtalar_angle_l	mtp_angle_l	lumbar_extension	lumbar_bending	lumbar_rotation	arm_flex_r	arm_add_r	arm_rot_r	elbow_flex_r	pro_sup_r	wrist_flex_r	wrist_dev_r	arm_flex_l	arm_add_l	arm_rot_l	elbow_flex_l	pro_sup_l	wrist_flex_l	wrist_dev_l
      0.40000000	      8.81519567	      3.38602714	     -2.27289846	     -1.55516678	      0.90165782	      0.17031047	      1.66219612	     -6.82148051	      0.54012323	     65.60789578	      6.54694086	      1.14507380	     -1.31704681	    -12.19034791	     -9.60906938	      4.89481875	      9.58474647	    -17.57624317	     26.00489039	     -4.34001139	      0.45387096	     19.15448301	     18.50682427	     -9.60906938	    -18.71360295	     -2.64591922	     -2.28976296	      3.48850669	     -9.80317255	     -9.72468524	     29.09709549	     90.00000001	      0.00000000	      0.00000000	     -6.64252854	     -7.16072500	    -26.86435198	     39.04230572	     90.00000001	      0.00000000	      0.00000000
      0.41000000	      8.93261078	      3.21761155	     -2.40503267	     -1.54793894	      0.90247870	      0.17039502	      3.50006764	     -6.40608850	      0.63738897	     66.77379530	      5.79397885	      1.16542258	      0.34866643	    -13.29295840	     -9.57574275	      3.88187986	      9.40512448	    -17.46608067	     25.48200088	     -4.09576643	      0.44474482	     19.46800424	     18.59636415	     -9.57574275	    -18.99323841	     -2.47376105	     -2.41454460	      3.35890644	     -9.95690353	     -9.85184667	     28.82945241	     90.00000001	      0.00000000	      0.00000000	     -6.28756332	     -7.30300363	    -26.58931082	     39.25266521	     90.00000001	      0.00000000	      0.00000000
      0.42000000	      9.00453494	      3.08730597	     -2.46286100	     -1.54080664	      0.90320985	      0.17035867	      5.33322764	     -6.04954467	      0.76931098	     67.64633283	      5.21631363	      1.18065123	      1.79191537	    -14.41401666	     -9.54514267	      2.92481055	      9.30529671	    -17.24137858	     24.93376692	     -3.89123505	      0.43517633	     19.77360913	     18.74020224	     -9.54514267	    -19.23131712	     -2.32187160	     -2.62827014	      3.24885819	    -10.06847307	    -10.10487167	     28.57631110	     90.00000001	      0.00000000	      0.00000000	     -5.94829358	     -7.48819133	    -26.19652899	     39.44946137	     90.00000001	      0.00000000	      0.00000000
      0.43000000	      9.05190576	      3.03484459	     -2.47233605	     -1.53380715	      0.90388485	      0.17016022	      7.13636064	     -5.87376889	      1.39479580	     68.23724534	      5.31173923	      1.19096460	      2.60979576	    -15.95641708	     -9.46743382	      1.98245935	      9.35571105	    -16.87000505	     24.30410260	     -3.73368860	      0.42418661	     19.97884704	     18.86537097	     -9.46743382	    -19.45294014	     -2.22076904	     -2.86073625	      3.20621421	    -10.02590683	    -11.22137164	     28.28819800	     90.00000001	      0.00000000	      0.00000000	     -5.68152039	     -7.83564162	    -25.08046035	     39.65957513	     90.00000001	      0.00000000	      0.00000000
      0.44000000	      9.10045392	      2.78173544	     -2.41673139	     -1.52681521	      0.90458563	      0.17001783	      8.80817307	     -5.33705337	      1.48811815	     68.38881052	      4.87651764	      1.19360992	      3.60202840	    -16.31269751	     -9.44180562	      1.15113053	      9.10228188	    -16.61256876	     23.92995447	     -3.58220374	      0.41765650	     20.19203619	     18.83665527	     -9.44180562	    -19.68691902	     -1.89524606	     -3.16304249	      3.07037375	    -10.15899220	    -11.40409326	     28.22198754	     90.00000001	      0.00000000	      0.00000000	     -5.32088047	     -7.95915061	    -24.85094369	     39.79569921	     90.00000001	      0.00000000	      0.00000000
      0.45000000	      9.13386026	      2.62290091	     -2.30767807	     -1.51981698	      0.90528546	      0.16986252	     10.33973859	     -4.93739227	      1.61906441	     68.13158007	      4.59869530	      1.18912040	      4.57039564	    -16.84253438	     -9.41089157	      0.27463243	      8.96652564	    -16.08689537	     23.43111580	     -3.32673881	      0.40895012	     20.53391734	     18.86547223	     -9.41089157	    -19.88954573	     -1.67536767	     -3.44223001	      2.89723538	    -10.22713030	    -11.77322033	     28.09659499	     90.00000001	      0.00000000	      0.00000000	     -4.91375746	     -8.19146821	    -24.37427111	     39.88470361	     90.00000001	      0.00000000	      0.00000000
      0.46000000	      9.15838937	      2.39760158	     -2.11358084	     -1.51285732	      0.90593667	      0.16950749	     11.76272600	     -4.52259799	      1.73134473	     67.55156837	      4.47499509	      1.17899728	      5.22043921	    -17.04708709	     -9.38060189	     -0.52010738	      8.80532445	    -15.56754390	     23.02286678	     -3.23518508	      0.40182483	     20.77013515	     18.81176318	     -9.38060189	    -20.07505376	     -1.33663846	     -3.81631908	      2.72095861	    -10.31778912	    -12.16458244	     28.06298185	     90.00000001	      0.00000000	      0.00000000	     -4.54064695	     -8.40108550	    -23.85483363	     39.97356449	     90.00000001	      0.00000000	      0.00000000
      0.47000000	      9.17805985	      2.15252953	     -1.84060796	     -1.50595088	      0.90658910	      0.16909872	     13.04266123	     -4.12438319	      1.77534477	     66.59859651	      4.42783897	      1.16236479	      5.74706582	    -17.09327489	     -9.34742217	     -1.28922575	      8.61022423	    -14.96756439	     22.63541858	     -3.13735103	      0.39506258	     21.03229395	     18.71845600	     -9.34742217	    -20.27974413	     -0.95782458	     -4.20212407	      2.53945062	    -10.38835440	    -12.64144205	     28.06790118	     90.00000001	      0.00000000	      0.00000000	     -4.16114570	     -8.63477303	    -23.23082643	     40.01916837	     90.00000001	      0.00000000	      0.00000000
      0.48000000	      9.19030056	      1.89370171	     -1.53077038	     -1.49903961	      0.90720630	      0.16865088	     14.18628862	     -3.76352843	      1.70842228	     65.28594012	      4.40245315	      1.13945461	      6.13253300	    -16.98041319	     -9.31214720	     -2.00405228	      8.39902896	    -14.38737159	     22.32277797	     -3.08582964	      0.38960597	     21.27604333	     18.59941137	     -9.31214720	    -20.45472149	     -0.54809964	     -4.61007007	      2.32982151	    -10.42840896	    -13.15572583	     28.10854351	     90.00000001	      0.00000000	      0.00000000	     -3.77412060	     -8.86407445	    -22.58342738	     40.05263213	     90.00000001	      0.00000000	      0.00000000
      0.49000000	      9.32363614	      1.61090169	     -1.14754281	     -1.49203913	      0.90806648	      0.16825943	     14.99565820	     -3.39606748	      1.15546268	     63.52126132	      4.04154494	      1.10865515	      6.25908933	    -16.60688304	     -9.20514044	     -2.90163751	      8.08699140	    -13.74524165	     21.95318133	     -2.90784794	      0.38315530	     21.42180439	     18.37041765	     -9.20514044	    -20.77664051	     -0.11944128	     -4.99864439	      2.19656324	    -10.28386681	    -14.66254737	     28.11101065	     90.00000001	      0.00000000	      0.00000000	     -3.39783466	     -9.20523405	    -21.44918542	     40.08873548	     90.00000001	      0.00000000	      0.00000000
      0.50000000	      9.10989757	      1.40021801	     -0.82520577	     -1.48525559	      0.90805519	      0.16777728	     16.25619997	     -3.17547578	      1.12222117	     61.78121837	      4.17003756	      1.07828568	      6.63323637	    -16.02711134	     -9.17563586	     -3.21333087	      7.97470217	    -13.43304246	     21.81587318	     -3.12617272	      0.38075882	     21.63382615	     18.35857141	     -9.17563586	    -20.69809959	      0.23361735	     -5.39282236	      1.91485891	    -10.37106815	    -14.79775449	     28.20532351	     90.00000001	      0.00000000	      0.00000000	     -3.02854918	     -9.32340075	    -21.20617049	     40.16836124	     90.00000001	      0.00000000	      0.00000000
      0.51000000	      9.22328592	      1.08458233	     -0.43355185	     -1.47818021	      0.90867560	      0.16746977	     16.81863845	     -2.84593040	      0.74841843	     59.41463297	      4.13085544	      1.03698097	      7.08460412	    -15.20676015	     -9.12385299	     -4.02211919	      7.54534599	    -13.09870889	     21.57633098	     -2.98524700	      0.37657802	     22.07193738	     18.68625792	     -9.12385299	    -20.95950053	      0.69382077	     -5.75023715	      1.63726581	    -10.38805708	    -15.22289206	     28.30392906	     90.00000001	      0.00000000	      0.00000000	     -2.57496005	     -9.53436920	    -20.62646657	     40.06607512	     90.00000001	      0.00000000	      0.00000000
      0.52000000	      8.95410811	      0.92836708	     -0.09996509	     -1.47133408	      0.90837693	      0.16706438	     17.93005200	     -2.71929646	      0.60530876	     57.17125730	      4.20958852	      0.99782668	      7.37934771	    -14.28714962	     -9.09370141	     -4.26935404	      7.48258917	    -12.93764877	     21.42378499	     -3.28601644	      0.37391559	     22.24561405	     18.81525720	     -9.09370141	    -20.79626088	      0.97658051	     -6.12186502	      1.31613888	    -10.43886892	    -15.40432909	     28.42415167	     90.00000001	      0.00000000	      0.00000000	     -2.23195158	     -9.65706514	    -20.33862321	     40.17735846	     90.00000001	      0.00000000	      0.00000000
      0.53000000	      8.80100147	      0.72668791	      0.25715251	     -1.46434654	      0.90824263	      0.16677435	     18.69896741	     -2.54786092	      0.45917890	     54.53048857	      4.34697806	      0.95173657	      7.81500719	    -13.11977850	     -9.06294694	     -4.70379115	      7.28310457	    -12.77494974	     21.22732277	     -3.44916267	      0.37048667	     22.56194786	     19.12413846	     -9.06294694	    -20.75225556	      1.29923269	     -6.46214677	      0.98889777	    -10.44978177	    -15.63925155	     28.53416942	     90.00000001	      0.00000000	      0.00000000	     -1.85272880	     -9.78892907	    -19.97890000	     40.17483880	     90.00000001	      0.00000000	      0.00000000
      0.54000000	      9.08554121	      0.45697333	      0.65250806	     -1.45666602	      0.90876831	      0.16668273	     18.69654657	     -2.26803904	     -0.88874663	     51.44621236	      3.54804413	      0.89790579	      9.06902592	     -9.72162811	     -8.94730068	     -5.76280828	      6.70950553	    -13.23175608	     20.91713764	     -3.31326479	      0.36507292	     23.13676637	     20.98353419	     -8.94730068	    -21.11814419	      1.68034392	     -6.70608664	      0.67108789	    -10.32657684	    -16.64142169	     28.57891520	     90.00000001	      0.00000000	      0.00000000	     -1.46289075	    -10.00339560	    -19.31964785	     40.14350513	     90.00000001	      0.00000000	      0.00000000
      0.55000000	      8.98111226	      0.32719306	      0.92489599	     -1.44949117	      0.90842547	      0.16672595	     19.23956243	     -2.13616530	     -0.95148288	     48.49628969	      3.70901875	      0.84641993	      9.66686046	     -8.02990135	     -8.89224676	     -6.32867781	      6.45554630	    -13.25823166	     20.63998116	     -3.27255273	      0.36023563	     23.46185367	     21.45578133	     -8.89224676	    -21.10075659	      1.86917891	     -6.90532232	      0.30353087	    -10.29391516	    -16.88008135	     28.65747352	     90.00000001	      0.00000000	      0.00000000	     -1.05440465	    -10.11392403	    -19.05678916	     40.12205949	     90.00000001	      0.00000000	      0.00000000
